<svg xmlns="http://www.w3.org/2000/svg" width="1200" height="310" viewBox="0 0 1200 310" role="img" aria-labelledby="title desc">
<title id="title">Commit mountains</title>
<desc id="desc">290 public contributions on GitHub in the last year drawn as a mountain ridge; each point is a week. The busiest week started 2026-03-15 with 37 contributions.</desc>
<defs>
  <linearGradient id="fill" x1="0" y1="0" x2="0" y2="1"><stop offset="0" stop-color="#e11d48" stop-opacity=".9"/><stop offset="1" stop-color="#7c3aed" stop-opacity=".25"/></linearGradient>
  <linearGradient id="sky" x1="0" y1="0" x2="0" y2="1"><stop offset="0" stop-color="#0d0b12"/><stop offset="1" stop-color="#17111f"/></linearGradient>
  <radialGradient id="dp" cx="36%" cy="30%" r="78%"><stop offset="0" stop-color="#fff"/><stop offset=".6" stop-color="#e11d48"/><stop offset="1" stop-color="#3b0764"/></radialGradient>
  <clipPath id="frame"><rect width="1200" height="310" rx="22"/></clipPath>
  <clipPath id="ridge"><path d="M40 258 C43.59 258 54.36 258 61.54 258 C68.72 258 75.9 258 83.08 258 C90.26 258 97.44 258 104.62 258 C111.79 258 118.97 258 126.15 258 C133.33 258 140.51 258 147.69 258 C154.87 258 162.05 263.04 169.23 258 C176.41 252.96 183.59 231.34 190.77 227.78 C197.95 224.21 205.13 231.59 212.31 236.63 C219.49 241.67 226.67 262.4 233.85 258 C241.03 253.6 248.21 210.21 255.38 210.21 C262.56 210.21 269.74 257.16 276.92 258 C284.1 258.84 291.28 229.5 298.46 215.26 C305.64 201.01 312.82 178.72 320 172.51 C327.18 166.31 334.36 172.51 341.54 178.03 C348.72 183.56 355.9 199.45 363.08 205.65 C370.26 211.85 377.44 206.53 384.62 215.26 C391.79 223.98 398.97 260.3 406.15 258 C413.33 255.7 420.51 216.57 427.69 201.46 C434.87 186.34 442.05 173.01 449.23 167.33 C456.41 161.64 463.59 164.55 470.77 167.33 C477.95 170.1 485.13 181.19 492.31 183.97 C499.49 186.74 506.67 186.31 513.85 183.97 C521.03 181.62 528.21 173.87 535.38 169.88 C542.56 165.9 549.74 167.04 556.92 160.06 C564.1 153.08 571.28 118.8 578.46 128 C585.64 137.2 592.82 197.15 600 215.26 C607.18 233.36 614.36 243.75 621.54 236.63 C628.72 229.5 635.9 172.51 643.08 172.51 C650.26 172.51 657.44 241.56 664.62 236.63 C671.79 231.69 678.97 142.91 686.15 142.91 C693.33 142.91 700.51 217.45 707.69 236.63 C714.87 255.81 722.05 254.44 729.23 258 C736.41 261.56 743.59 258 750.77 258 C757.95 258 765.13 258 772.31 258 C779.49 258 786.67 258 793.85 258 C801.03 258 808.21 265.12 815.38 258 C822.56 250.88 829.74 215.26 836.92 215.26 C844.1 215.26 851.28 250.88 858.46 258 C865.64 265.12 872.82 258 880 258 C887.18 258 894.36 258 901.54 258 C908.72 258 915.9 261.56 923.08 258 C930.26 254.44 937.44 236.63 944.62 236.63 C951.79 236.63 958.97 254.44 966.15 258 C973.33 261.56 980.51 261.56 987.69 258 C994.87 254.44 1002.05 240.19 1009.23 236.63 C1016.41 233.07 1023.59 236.63 1030.77 236.63 C1037.95 236.63 1045.13 233.07 1052.31 236.63 C1059.49 240.19 1066.67 254.44 1073.85 258 C1081.03 261.56 1088.21 258 1095.38 258 C1102.56 258 1109.74 258 1116.92 258 C1124.1 258 1131.28 279.37 1138.46 258 C1145.64 236.63 1156.41 151.14 1160 129.77 L1160 310 L40 310 Z"/></clipPath>
  <style>.tw{animation:tw 3s ease-in-out infinite}@keyframes tw{0%,100%{opacity:.2}50%{opacity:.9}}
  .flag{animation:flag 1.6s ease-in-out infinite;transform-box:fill-box;transform-origin:0 50%}@keyframes flag{0%,100%{transform:skewY(0)}50%{transform:skewY(-8deg) scaleX(.9)}}
  @media (prefers-reduced-motion:reduce){*{animation:none!important}.motion{display:none}.zz,.heart{opacity:.8}}</style>
</defs>
<g clip-path="url(#frame)">
  <rect width="1200" height="310" fill="url(#sky)"/>
  <circle class="tw" style="animation-delay:-1.09s" cx="442.8" cy="52.9" r="1.31" fill="#fff"/><circle class="tw" style="animation-delay:-2.64s" cx="1178.4" cy="19.53" r="0.73" fill="#fff"/><circle class="tw" style="animation-delay:-1.88s" cx="1196.48" cy="41.53" r="1.01" fill="#fff"/><circle class="tw" style="animation-delay:-1.16s" cx="812.68" cy="49.44" r="0.89" fill="#fff"/><circle class="tw" style="animation-delay:-2.43s" cx="287.55" cy="67.79" r="1.46" fill="#fff"/><circle class="tw" style="animation-delay:-2.53s" cx="681.23" cy="75.12" r="0.85" fill="#fff"/><circle class="tw" style="animation-delay:-2.16s" cx="335.8" cy="98.73" r="1.16" fill="#fff"/><circle class="tw" style="animation-delay:-0.69s" cx="279.22" cy="105.88" r="1.57" fill="#fff"/><circle class="tw" style="animation-delay:-0.38s" cx="944.4" cy="50.64" r="0.85" fill="#fff"/><circle class="tw" style="animation-delay:-2.46s" cx="497.31" cy="23.07" r="0.67" fill="#fff"/><circle class="tw" style="animation-delay:-2.16s" cx="567.85" cy="35.07" r="1.14" fill="#fff"/><circle class="tw" style="animation-delay:-2.76s" cx="277.11" cy="104.46" r="0.82" fill="#fff"/><circle class="tw" style="animation-delay:-0.24s" cx="554.98" cy="116.67" r="0.62" fill="#fff"/><circle class="tw" style="animation-delay:-1.91s" cx="241.64" cy="70.59" r="1.64" fill="#fff"/><circle class="tw" style="animation-delay:-2.32s" cx="566.89" cy="22.96" r="1.49" fill="#fff"/><circle class="tw" style="animation-delay:-2.21s" cx="100.83" cy="62.93" r="1.7" fill="#fff"/><circle class="tw" style="animation-delay:-1.38s" cx="969.92" cy="15.97" r="1.15" fill="#fff"/><circle class="tw" style="animation-delay:-1.64s" cx="631.94" cy="33.97" r="0.75" fill="#fff"/><circle class="tw" style="animation-delay:-0.27s" cx="203.65" cy="65.66" r="0.99" fill="#fff"/><circle class="tw" style="animation-delay:-2.75s" cx="635.08" cy="79.1" r="1.24" fill="#fff"/><circle class="tw" style="animation-delay:-0.47s" cx="323.84" cy="75.39" r="1.18" fill="#fff"/><circle class="tw" style="animation-delay:-0.83s" cx="863.64" cy="60.47" r="0.54" fill="#fff"/><circle class="tw" style="animation-delay:-0.01s" cx="320.39" cy="59.08" r="0.57" fill="#fff"/><circle class="tw" style="animation-delay:-2.13s" cx="529.81" cy="62.66" r="1.58" fill="#fff"/><circle class="tw" style="animation-delay:-0.64s" cx="10.33" cy="50.4" r="0.64" fill="#fff"/><circle class="tw" style="animation-delay:-0.35s" cx="784.96" cy="30.21" r="1.06" fill="#fff"/><circle class="tw" style="animation-delay:-0.12s" cx="105.8" cy="73.71" r="1.34" fill="#fff"/><circle class="tw" style="animation-delay:-1.33s" cx="775.2" cy="17.1" r="0.78" fill="#fff"/><circle class="tw" style="animation-delay:-2.71s" cx="856.98" cy="66.97" r="0.99" fill="#fff"/><circle class="tw" style="animation-delay:-2.87s" cx="671.79" cy="58" r="1.45" fill="#fff"/>
  <path d="M56 251.92 C59.59 251.92 70.36 251.92 77.54 251.92 C84.72 251.92 91.9 251.92 99.08 251.92 C106.26 251.92 113.44 251.92 120.62 251.92 C127.79 251.92 134.97 251.92 142.15 251.92 C149.33 251.92 156.51 251.92 163.69 251.92 C170.87 251.92 178.05 255.55 185.23 251.92 C192.41 248.29 199.59 232.72 206.77 230.16 C213.95 227.59 221.13 232.91 228.31 236.53 C235.49 240.16 242.67 255.09 249.85 251.92 C257.03 248.75 264.21 217.51 271.38 217.51 C278.56 217.51 285.74 251.31 292.92 251.92 C300.1 252.53 307.28 231.4 314.46 221.14 C321.64 210.89 328.82 194.84 336 190.37 C343.18 185.9 350.36 190.37 357.54 194.34 C364.72 198.32 371.9 209.76 379.08 214.23 C386.26 218.69 393.44 214.86 400.62 221.14 C407.79 227.43 414.97 253.58 422.15 251.92 C429.33 250.26 436.51 222.09 443.69 211.21 C450.87 200.33 458.05 190.73 465.23 186.64 C472.41 182.54 479.59 184.64 486.77 186.64 C493.95 188.63 501.13 196.62 508.31 198.62 C515.49 200.61 522.67 200.31 529.85 198.62 C537.03 196.93 544.21 191.34 551.38 188.47 C558.56 185.61 565.74 186.43 572.92 181.4 C580.1 176.38 587.28 151.7 594.46 158.32 C601.64 164.94 608.82 208.11 616 221.14 C623.18 234.18 630.36 241.66 637.54 236.53 C644.72 231.4 651.9 190.37 659.08 190.37 C666.26 190.37 673.44 240.08 680.62 236.53 C687.79 232.98 694.97 169.05 702.15 169.05 C709.33 169.05 716.51 222.72 723.69 236.53 C730.87 250.34 738.05 249.36 745.23 251.92 C752.41 254.48 759.59 251.92 766.77 251.92 C773.95 251.92 781.13 251.92 788.31 251.92 C795.49 251.92 802.67 251.92 809.85 251.92 C817.03 251.92 824.21 257.05 831.38 251.92 C838.56 246.79 845.74 221.14 852.92 221.14 C860.1 221.14 867.28 246.79 874.46 251.92 C881.64 257.05 888.82 251.92 896 251.92 C903.18 251.92 910.36 251.92 917.54 251.92 C924.72 251.92 931.9 254.48 939.08 251.92 C946.26 249.36 953.44 236.53 960.62 236.53 C967.79 236.53 974.97 249.36 982.15 251.92 C989.33 254.48 996.51 254.48 1003.69 251.92 C1010.87 249.36 1018.05 239.1 1025.23 236.53 C1032.41 233.97 1039.59 236.53 1046.77 236.53 C1053.95 236.53 1061.13 233.97 1068.31 236.53 C1075.49 239.1 1082.67 249.36 1089.85 251.92 C1097.03 254.48 1104.21 251.92 1111.38 251.92 C1118.56 251.92 1125.74 251.92 1132.92 251.92 C1140.1 251.92 1147.28 267.31 1154.46 251.92 C1161.64 236.53 1172.41 174.98 1176 159.59 L1176 310 L56 310 Z" fill="#231a31"/>
  <path d="M40 258 C43.59 258 54.36 258 61.54 258 C68.72 258 75.9 258 83.08 258 C90.26 258 97.44 258 104.62 258 C111.79 258 118.97 258 126.15 258 C133.33 258 140.51 258 147.69 258 C154.87 258 162.05 263.04 169.23 258 C176.41 252.96 183.59 231.34 190.77 227.78 C197.95 224.21 205.13 231.59 212.31 236.63 C219.49 241.67 226.67 262.4 233.85 258 C241.03 253.6 248.21 210.21 255.38 210.21 C262.56 210.21 269.74 257.16 276.92 258 C284.1 258.84 291.28 229.5 298.46 215.26 C305.64 201.01 312.82 178.72 320 172.51 C327.18 166.31 334.36 172.51 341.54 178.03 C348.72 183.56 355.9 199.45 363.08 205.65 C370.26 211.85 377.44 206.53 384.62 215.26 C391.79 223.98 398.97 260.3 406.15 258 C413.33 255.7 420.51 216.57 427.69 201.46 C434.87 186.34 442.05 173.01 449.23 167.33 C456.41 161.64 463.59 164.55 470.77 167.33 C477.95 170.1 485.13 181.19 492.31 183.97 C499.49 186.74 506.67 186.31 513.85 183.97 C521.03 181.62 528.21 173.87 535.38 169.88 C542.56 165.9 549.74 167.04 556.92 160.06 C564.1 153.08 571.28 118.8 578.46 128 C585.64 137.2 592.82 197.15 600 215.26 C607.18 233.36 614.36 243.75 621.54 236.63 C628.72 229.5 635.9 172.51 643.08 172.51 C650.26 172.51 657.44 241.56 664.62 236.63 C671.79 231.69 678.97 142.91 686.15 142.91 C693.33 142.91 700.51 217.45 707.69 236.63 C714.87 255.81 722.05 254.44 729.23 258 C736.41 261.56 743.59 258 750.77 258 C757.95 258 765.13 258 772.31 258 C779.49 258 786.67 258 793.85 258 C801.03 258 808.21 265.12 815.38 258 C822.56 250.88 829.74 215.26 836.92 215.26 C844.1 215.26 851.28 250.88 858.46 258 C865.64 265.12 872.82 258 880 258 C887.18 258 894.36 258 901.54 258 C908.72 258 915.9 261.56 923.08 258 C930.26 254.44 937.44 236.63 944.62 236.63 C951.79 236.63 958.97 254.44 966.15 258 C973.33 261.56 980.51 261.56 987.69 258 C994.87 254.44 1002.05 240.19 1009.23 236.63 C1016.41 233.07 1023.59 236.63 1030.77 236.63 C1037.95 236.63 1045.13 233.07 1052.31 236.63 C1059.49 240.19 1066.67 254.44 1073.85 258 C1081.03 261.56 1088.21 258 1095.38 258 C1102.56 258 1109.74 258 1116.92 258 C1124.1 258 1131.28 279.37 1138.46 258 C1145.64 236.63 1156.41 151.14 1160 129.77 L1160 310 L40 310 Z" fill="url(#fill)"/>
  <g clip-path="url(#ridge)"><rect x="294" y="168.51" width="52" height="16" fill="#fff" opacity=".82"/><rect x="423.23" y="163.33" width="52" height="16" fill="#fff" opacity=".82"/><rect x="552.46" y="124" width="52" height="16" fill="#fff" opacity=".82"/><rect x="617.08" y="168.51" width="52" height="16" fill="#fff" opacity=".82"/><rect x="660.15" y="138.91" width="52" height="16" fill="#fff" opacity=".82"/></g>
  <path d="M40 258 C43.59 258 54.36 258 61.54 258 C68.72 258 75.9 258 83.08 258 C90.26 258 97.44 258 104.62 258 C111.79 258 118.97 258 126.15 258 C133.33 258 140.51 258 147.69 258 C154.87 258 162.05 263.04 169.23 258 C176.41 252.96 183.59 231.34 190.77 227.78 C197.95 224.21 205.13 231.59 212.31 236.63 C219.49 241.67 226.67 262.4 233.85 258 C241.03 253.6 248.21 210.21 255.38 210.21 C262.56 210.21 269.74 257.16 276.92 258 C284.1 258.84 291.28 229.5 298.46 215.26 C305.64 201.01 312.82 178.72 320 172.51 C327.18 166.31 334.36 172.51 341.54 178.03 C348.72 183.56 355.9 199.45 363.08 205.65 C370.26 211.85 377.44 206.53 384.62 215.26 C391.79 223.98 398.97 260.3 406.15 258 C413.33 255.7 420.51 216.57 427.69 201.46 C434.87 186.34 442.05 173.01 449.23 167.33 C456.41 161.64 463.59 164.55 470.77 167.33 C477.95 170.1 485.13 181.19 492.31 183.97 C499.49 186.74 506.67 186.31 513.85 183.97 C521.03 181.62 528.21 173.87 535.38 169.88 C542.56 165.9 549.74 167.04 556.92 160.06 C564.1 153.08 571.28 118.8 578.46 128 C585.64 137.2 592.82 197.15 600 215.26 C607.18 233.36 614.36 243.75 621.54 236.63 C628.72 229.5 635.9 172.51 643.08 172.51 C650.26 172.51 657.44 241.56 664.62 236.63 C671.79 231.69 678.97 142.91 686.15 142.91 C693.33 142.91 700.51 217.45 707.69 236.63 C714.87 255.81 722.05 254.44 729.23 258 C736.41 261.56 743.59 258 750.77 258 C757.95 258 765.13 258 772.31 258 C779.49 258 786.67 258 793.85 258 C801.03 258 808.21 265.12 815.38 258 C822.56 250.88 829.74 215.26 836.92 215.26 C844.1 215.26 851.28 250.88 858.46 258 C865.64 265.12 872.82 258 880 258 C887.18 258 894.36 258 901.54 258 C908.72 258 915.9 261.56 923.08 258 C930.26 254.44 937.44 236.63 944.62 236.63 C951.79 236.63 958.97 254.44 966.15 258 C973.33 261.56 980.51 261.56 987.69 258 C994.87 254.44 1002.05 240.19 1009.23 236.63 C1016.41 233.07 1023.59 236.63 1030.77 236.63 C1037.95 236.63 1045.13 233.07 1052.31 236.63 C1059.49 240.19 1066.67 254.44 1073.85 258 C1081.03 261.56 1088.21 258 1095.38 258 C1102.56 258 1109.74 258 1116.92 258 C1124.1 258 1131.28 279.37 1138.46 258 C1145.64 236.63 1156.41 151.14 1160 129.77" fill="none" stroke="#e11d48" stroke-width="2" opacity=".8"/>
  <g transform="translate(578.46 128)"><path d="M0 0V-34" stroke="#f2eff7" stroke-width="2"/><path class="flag" d="M0 -34l22 6-22 7z" fill="#e11d48"/></g>
  <g class="motion" transform="translate(0 -11)">
    <circle r="16" fill="#e11d48" opacity=".18"><animateMotion dur="28s" repeatCount="indefinite" path="M40 258 C43.59 258 54.36 258 61.54 258 C68.72 258 75.9 258 83.08 258 C90.26 258 97.44 258 104.62 258 C111.79 258 118.97 258 126.15 258 C133.33 258 140.51 258 147.69 258 C154.87 258 162.05 263.04 169.23 258 C176.41 252.96 183.59 231.34 190.77 227.78 C197.95 224.21 205.13 231.59 212.31 236.63 C219.49 241.67 226.67 262.4 233.85 258 C241.03 253.6 248.21 210.21 255.38 210.21 C262.56 210.21 269.74 257.16 276.92 258 C284.1 258.84 291.28 229.5 298.46 215.26 C305.64 201.01 312.82 178.72 320 172.51 C327.18 166.31 334.36 172.51 341.54 178.03 C348.72 183.56 355.9 199.45 363.08 205.65 C370.26 211.85 377.44 206.53 384.62 215.26 C391.79 223.98 398.97 260.3 406.15 258 C413.33 255.7 420.51 216.57 427.69 201.46 C434.87 186.34 442.05 173.01 449.23 167.33 C456.41 161.64 463.59 164.55 470.77 167.33 C477.95 170.1 485.13 181.19 492.31 183.97 C499.49 186.74 506.67 186.31 513.85 183.97 C521.03 181.62 528.21 173.87 535.38 169.88 C542.56 165.9 549.74 167.04 556.92 160.06 C564.1 153.08 571.28 118.8 578.46 128 C585.64 137.2 592.82 197.15 600 215.26 C607.18 233.36 614.36 243.75 621.54 236.63 C628.72 229.5 635.9 172.51 643.08 172.51 C650.26 172.51 657.44 241.56 664.62 236.63 C671.79 231.69 678.97 142.91 686.15 142.91 C693.33 142.91 700.51 217.45 707.69 236.63 C714.87 255.81 722.05 254.44 729.23 258 C736.41 261.56 743.59 258 750.77 258 C757.95 258 765.13 258 772.31 258 C779.49 258 786.67 258 793.85 258 C801.03 258 808.21 265.12 815.38 258 C822.56 250.88 829.74 215.26 836.92 215.26 C844.1 215.26 851.28 250.88 858.46 258 C865.64 265.12 872.82 258 880 258 C887.18 258 894.36 258 901.54 258 C908.72 258 915.9 261.56 923.08 258 C930.26 254.44 937.44 236.63 944.62 236.63 C951.79 236.63 958.97 254.44 966.15 258 C973.33 261.56 980.51 261.56 987.69 258 C994.87 254.44 1002.05 240.19 1009.23 236.63 C1016.41 233.07 1023.59 236.63 1030.77 236.63 C1037.95 236.63 1045.13 233.07 1052.31 236.63 C1059.49 240.19 1066.67 254.44 1073.85 258 C1081.03 261.56 1088.21 258 1095.38 258 C1102.56 258 1109.74 258 1116.92 258 C1124.1 258 1131.28 279.37 1138.46 258 C1145.64 236.63 1156.41 151.14 1160 129.77" begin="-.35s"/></circle>
    <circle r="9" fill="url(#dp)"><animateMotion dur="28s" repeatCount="indefinite" path="M40 258 C43.59 258 54.36 258 61.54 258 C68.72 258 75.9 258 83.08 258 C90.26 258 97.44 258 104.62 258 C111.79 258 118.97 258 126.15 258 C133.33 258 140.51 258 147.69 258 C154.87 258 162.05 263.04 169.23 258 C176.41 252.96 183.59 231.34 190.77 227.78 C197.95 224.21 205.13 231.59 212.31 236.63 C219.49 241.67 226.67 262.4 233.85 258 C241.03 253.6 248.21 210.21 255.38 210.21 C262.56 210.21 269.74 257.16 276.92 258 C284.1 258.84 291.28 229.5 298.46 215.26 C305.64 201.01 312.82 178.72 320 172.51 C327.18 166.31 334.36 172.51 341.54 178.03 C348.72 183.56 355.9 199.45 363.08 205.65 C370.26 211.85 377.44 206.53 384.62 215.26 C391.79 223.98 398.97 260.3 406.15 258 C413.33 255.7 420.51 216.57 427.69 201.46 C434.87 186.34 442.05 173.01 449.23 167.33 C456.41 161.64 463.59 164.55 470.77 167.33 C477.95 170.1 485.13 181.19 492.31 183.97 C499.49 186.74 506.67 186.31 513.85 183.97 C521.03 181.62 528.21 173.87 535.38 169.88 C542.56 165.9 549.74 167.04 556.92 160.06 C564.1 153.08 571.28 118.8 578.46 128 C585.64 137.2 592.82 197.15 600 215.26 C607.18 233.36 614.36 243.75 621.54 236.63 C628.72 229.5 635.9 172.51 643.08 172.51 C650.26 172.51 657.44 241.56 664.62 236.63 C671.79 231.69 678.97 142.91 686.15 142.91 C693.33 142.91 700.51 217.45 707.69 236.63 C714.87 255.81 722.05 254.44 729.23 258 C736.41 261.56 743.59 258 750.77 258 C757.95 258 765.13 258 772.31 258 C779.49 258 786.67 258 793.85 258 C801.03 258 808.21 265.12 815.38 258 C822.56 250.88 829.74 215.26 836.92 215.26 C844.1 215.26 851.28 250.88 858.46 258 C865.64 265.12 872.82 258 880 258 C887.18 258 894.36 258 901.54 258 C908.72 258 915.9 261.56 923.08 258 C930.26 254.44 937.44 236.63 944.62 236.63 C951.79 236.63 958.97 254.44 966.15 258 C973.33 261.56 980.51 261.56 987.69 258 C994.87 254.44 1002.05 240.19 1009.23 236.63 C1016.41 233.07 1023.59 236.63 1030.77 236.63 C1037.95 236.63 1045.13 233.07 1052.31 236.63 C1059.49 240.19 1066.67 254.44 1073.85 258 C1081.03 261.56 1088.21 258 1095.38 258 C1102.56 258 1109.74 258 1116.92 258 C1124.1 258 1131.28 279.37 1138.46 258 C1145.64 236.63 1156.41 151.14 1160 129.77"/></circle>
  </g>
  <text x="40" y="298" font-family="'Segoe UI',-apple-system,BlinkMacSystemFont,'Helvetica Neue',Arial,sans-serif" font-size="11" fill="#a39bb4">Sep</text><text x="83.08" y="298" font-family="'Segoe UI',-apple-system,BlinkMacSystemFont,'Helvetica Neue',Arial,sans-serif" font-size="11" fill="#a39bb4">Oct</text><text x="169.23" y="298" font-family="'Segoe UI',-apple-system,BlinkMacSystemFont,'Helvetica Neue',Arial,sans-serif" font-size="11" fill="#a39bb4">Nov</text><text x="276.92" y="298" font-family="'Segoe UI',-apple-system,BlinkMacSystemFont,'Helvetica Neue',Arial,sans-serif" font-size="11" fill="#a39bb4">Dec</text><text x="363.08" y="298" font-family="'Segoe UI',-apple-system,BlinkMacSystemFont,'Helvetica Neue',Arial,sans-serif" font-size="11" fill="#a39bb4">Jan</text><text x="449.23" y="298" font-family="'Segoe UI',-apple-system,BlinkMacSystemFont,'Helvetica Neue',Arial,sans-serif" font-size="11" fill="#a39bb4">Feb</text><text x="535.38" y="298" font-family="'Segoe UI',-apple-system,BlinkMacSystemFont,'Helvetica Neue',Arial,sans-serif" font-size="11" fill="#a39bb4">Mar</text><text x="643.08" y="298" font-family="'Segoe UI',-apple-system,BlinkMacSystemFont,'Helvetica Neue',Arial,sans-serif" font-size="11" fill="#a39bb4">Apr</text><text x="729.23" y="298" font-family="'Segoe UI',-apple-system,BlinkMacSystemFont,'Helvetica Neue',Arial,sans-serif" font-size="11" fill="#a39bb4">May</text><text x="836.92" y="298" font-family="'Segoe UI',-apple-system,BlinkMacSystemFont,'Helvetica Neue',Arial,sans-serif" font-size="11" fill="#a39bb4">Jun</text><text x="923.08" y="298" font-family="'Segoe UI',-apple-system,BlinkMacSystemFont,'Helvetica Neue',Arial,sans-serif" font-size="11" fill="#a39bb4">Jul</text><text x="1009.23" y="298" font-family="'Segoe UI',-apple-system,BlinkMacSystemFont,'Helvetica Neue',Arial,sans-serif" font-size="11" fill="#a39bb4">Aug</text><text x="1116.92" y="298" font-family="'Segoe UI',-apple-system,BlinkMacSystemFont,'Helvetica Neue',Arial,sans-serif" font-size="11" fill="#a39bb4">Sep</text>
  <text x="40" y="44" font-family="'Segoe UI',-apple-system,BlinkMacSystemFont,'Helvetica Neue',Arial,sans-serif" font-size="22" font-weight="800" fill="#f2eff7">290 contributions on GitHub in the last year</text>
  <text x="40" y="66" font-family="ui-monospace,SFMono-Regular,'Cascadia Mono',Consolas,'Liberation Mono',Menlo,monospace" font-size="12" fill="#a39bb4">public activity only — client work lives in private repos · each point is a week</text>
  <text x="1160" y="44" text-anchor="end" font-family="ui-monospace,SFMono-Regular,'Cascadia Mono',Consolas,'Liberation Mono',Menlo,monospace" font-size="12.5" font-weight="700" fill="#e11d48">▲ busiest week · 15 Mar · 37</text>
</g>
<rect x=".5" y=".5" width="1199" height="309" rx="22" fill="none" stroke="#2a2236"/>
</svg>
