<svg width="200" height="160" viewBox="0 0 160 128" xmlns="http://www.w3.org/2000/svg" preserveAspectRatio="xMidYMid meet">
  <defs>
    <linearGradient id="cat-bg" x1="0" y1="0" x2="1" y2="1">
      <stop offset="0%" stop-color="#122233" />
      <stop offset="100%" stop-color="#1b2a36" />
    </linearGradient>
    <radialGradient id="cat-glow" cx="50%" cy="45%" r="60%">
      <stop offset="0%" stop-color="#e6f0ff" stop-opacity="0.25" />
      <stop offset="100%" stop-color="#0b1520" stop-opacity="0.95" />
    </radialGradient>
  </defs>

  <rect x="4" y="4" width="152" height="120" rx="18" fill="url(#cat-bg)" opacity="0.85" />
  <rect x="4" y="4" width="152" height="120" rx="18" fill="url(#cat-glow)" />
  <rect x="4" y="4" width="152" height="120" rx="18" fill="none" stroke="#8fb3ff" stroke-opacity="0.35" />
  <!-- Pixel art cat head -->
  <!-- Define pixel size -->
  <!-- Each unit corresponds to a 10×10 square -->
  <!-- Dark base color for head and ears -->
  <g id="head" fill="#1f2933">
    <!-- Left ear -->
    <rect x="30" y="10" width="10" height="10" />
    <rect x="40" y="10" width="10" height="10" />
    <rect x="30" y="20" width="10" height="10" />
    <rect x="40" y="20" width="10" height="10" />
    <!-- Right ear -->
    <rect x="110" y="10" width="10" height="10" />
    <rect x="120" y="10" width="10" height="10" />
    <rect x="110" y="20" width="10" height="10" />
    <rect x="120" y="20" width="10" height="10" />
    <!-- Head body rows -->
    <!-- Row y=3 (y=30px) -->
    <rect x="20" y="30" width="10" height="10" />
    <rect x="30" y="30" width="10" height="10" />
    <rect x="40" y="30" width="10" height="10" />
    <rect x="50" y="30" width="10" height="10" />
    <rect x="60" y="30" width="10" height="10" />
    <rect x="70" y="30" width="10" height="10" />
    <rect x="80" y="30" width="10" height="10" />
    <rect x="90" y="30" width="10" height="10" />
    <rect x="100" y="30" width="10" height="10" />
    <rect x="110" y="30" width="10" height="10" />
    <rect x="120" y="30" width="10" height="10" />
    <rect x="130" y="30" width="10" height="10" />
    <!-- Row y=4 (y=40px) -->
    <rect x="20" y="40" width="10" height="10" />
    <rect x="30" y="40" width="10" height="10" />
    <rect x="40" y="40" width="10" height="10" />
    <rect x="50" y="40" width="10" height="10" />
    <rect x="60" y="40" width="10" height="10" />
    <rect x="70" y="40" width="10" height="10" />
    <rect x="80" y="40" width="10" height="10" />
    <rect x="90" y="40" width="10" height="10" />
    <rect x="100" y="40" width="10" height="10" />
    <rect x="110" y="40" width="10" height="10" />
    <rect x="120" y="40" width="10" height="10" />
    <rect x="130" y="40" width="10" height="10" />
    <!-- Row y=5 (y=50px) -->
    <rect x="20" y="50" width="10" height="10" />
    <rect x="30" y="50" width="10" height="10" />
    <rect x="40" y="50" width="10" height="10" />
    <rect x="50" y="50" width="10" height="10" />
    <rect x="60" y="50" width="10" height="10" />
    <rect x="70" y="50" width="10" height="10" />
    <rect x="80" y="50" width="10" height="10" />
    <rect x="90" y="50" width="10" height="10" />
    <rect x="100" y="50" width="10" height="10" />
    <rect x="110" y="50" width="10" height="10" />
    <rect x="120" y="50" width="10" height="10" />
    <rect x="130" y="50" width="10" height="10" />
    <!-- Row y=6 (y=60px) -->
    <rect x="20" y="60" width="10" height="10" />
    <rect x="30" y="60" width="10" height="10" />
    <rect x="40" y="60" width="10" height="10" />
    <rect x="50" y="60" width="10" height="10" />
    <rect x="60" y="60" width="10" height="10" />
    <rect x="70" y="60" width="10" height="10" />
    <rect x="80" y="60" width="10" height="10" />
    <rect x="90" y="60" width="10" height="10" />
    <rect x="100" y="60" width="10" height="10" />
    <rect x="110" y="60" width="10" height="10" />
    <rect x="120" y="60" width="10" height="10" />
    <rect x="130" y="60" width="10" height="10" />
    <!-- Row y=7 (y=70px) -->
    <rect x="20" y="70" width="10" height="10" />
    <rect x="30" y="70" width="10" height="10" />
    <rect x="40" y="70" width="10" height="10" />
    <rect x="50" y="70" width="10" height="10" />
    <rect x="60" y="70" width="10" height="10" />
    <rect x="70" y="70" width="10" height="10" />
    <rect x="80" y="70" width="10" height="10" />
    <rect x="90" y="70" width="10" height="10" />
    <rect x="100" y="70" width="10" height="10" />
    <rect x="110" y="70" width="10" height="10" />
    <rect x="120" y="70" width="10" height="10" />
    <rect x="130" y="70" width="10" height="10" />
    <!-- Row y=8 (y=80px) -->
    <rect x="20" y="80" width="10" height="10" />
    <rect x="30" y="80" width="10" height="10" />
    <rect x="40" y="80" width="10" height="10" />
    <rect x="50" y="80" width="10" height="10" />
    <rect x="60" y="80" width="10" height="10" />
    <rect x="70" y="80" width="10" height="10" />
    <rect x="80" y="80" width="10" height="10" />
    <rect x="90" y="80" width="10" height="10" />
    <rect x="100" y="80" width="10" height="10" />
    <rect x="110" y="80" width="10" height="10" />
    <rect x="120" y="80" width="10" height="10" />
    <rect x="130" y="80" width="10" height="10" />
    <!-- Row y=9 (y=90px) -->
    <rect x="20" y="90" width="10" height="10" />
    <rect x="30" y="90" width="10" height="10" />
    <rect x="40" y="90" width="10" height="10" />
    <rect x="50" y="90" width="10" height="10" />
    <rect x="60" y="90" width="10" height="10" />
    <rect x="70" y="90" width="10" height="10" />
    <rect x="80" y="90" width="10" height="10" />
    <rect x="90" y="90" width="10" height="10" />
    <rect x="100" y="90" width="10" height="10" />
    <rect x="110" y="90" width="10" height="10" />
    <rect x="120" y="90" width="10" height="10" />
    <rect x="130" y="90" width="10" height="10" />
    <!-- Row y=10 (y=100px) -->
    <rect x="20" y="100" width="10" height="10" />
    <rect x="30" y="100" width="10" height="10" />
    <rect x="40" y="100" width="10" height="10" />
    <rect x="50" y="100" width="10" height="10" />
    <rect x="60" y="100" width="10" height="10" />
    <rect x="70" y="100" width="10" height="10" />
    <rect x="80" y="100" width="10" height="10" />
    <rect x="90" y="100" width="10" height="10" />
    <rect x="100" y="100" width="10" height="10" />
    <rect x="110" y="100" width="10" height="10" />
    <rect x="120" y="100" width="10" height="10" />
    <rect x="130" y="100" width="10" height="10" />
  </g>
  
  <!-- Eyes (animated blink) -->
  <g id="eyes" fill="#fdf6e3">
    <!-- Left eye -->
    <rect x="50" y="60" width="10" height="10">
      <animate attributeName="height"
               values="10;2;10"
               dur="3s"
               repeatCount="indefinite"/>
      <animate attributeName="y"
               values="60;68;60"
               dur="3s"
               repeatCount="indefinite"/>
    </rect>
    <rect x="60" y="60" width="10" height="10">
      <animate attributeName="height"
               values="10;2;10"
               dur="3s"
               repeatCount="indefinite"/>
      <animate attributeName="y"
               values="60;68;60"
               dur="3s"
               repeatCount="indefinite"/>
    </rect>
    <!-- Right eye -->
    <rect x="90" y="60" width="10" height="10">
      <animate attributeName="height"
               values="10;2;10"
               dur="3s"
               begin="0.2s"
               repeatCount="indefinite"/>
      <animate attributeName="y"
               values="60;68;60"
               dur="3s"
               begin="0.2s"
               repeatCount="indefinite"/>
    </rect>
    <rect x="100" y="60" width="10" height="10">
      <animate attributeName="height"
               values="10;2;10"
               dur="3s"
               begin="0.2s"
               repeatCount="indefinite"/>
      <animate attributeName="y"
               values="60;68;60"
               dur="3s"
               begin="0.2s"
               repeatCount="indefinite"/>
    </rect>
  </g>
  
  <!-- Nose and mouth -->
  <g id="mouth">
    <!-- Nose -->
    <rect x="75" y="80" width="10" height="10" fill="#fbb6ce" />
    <!-- Mouth corners -->
    <rect x="65" y="90" width="10" height="10" fill="#d1d5db" />
    <rect x="85" y="90" width="10" height="10" fill="#d1d5db" />
  </g>
  
  <!-- Tail group: pixelated tail with gentle wag -->
  <g id="tail" transform="translate(0,0)">
    <!-- Tail pixels -->
    <rect x="130" y="80" width="10" height="10" fill="#1f2933" />
    <rect x="140" y="90" width="10" height="10" fill="#1f2933" />
    <rect x="150" y="100" width="10" height="10" fill="#1f2933" />
    <rect x="140" y="110" width="10" height="10" fill="#1f2933" />
    <!-- Animation: tail sways left and right -->
    <animateTransform attributeName="transform"
                      type="rotate"
                      from="-10 130 90"
                      to="10 130 90"
                      dur="4s"
                      repeatCount="indefinite"
                      additive="sum"
                      begin="0s"/>
  </g>
</svg>
