<svg xmlns="http://www.w3.org/2000/svg" width="1200" height="320" viewBox="0 0 1200 320" role="img" aria-label="Tech stack icons">
  <g font-family="Segoe UI, Arial, sans-serif" text-anchor="middle">
    <g transform="translate(200 30)">
      <rect width="140" height="140" rx="24" fill="#0f1b26" stroke="#2a3b52" />
      <text x="70" y="88" font-size="44" font-weight="700" fill="#d7e2f4">F</text>
      <text x="70" y="118" font-size="14" fill="#9cb1cc">Flutter</text>
    </g>
    <g transform="translate(420 30)">
      <rect width="140" height="140" rx="24" fill="#0f1b26" stroke="#2a3b52" />
      <text x="70" y="88" font-size="44" font-weight="700" fill="#d7e2f4">D</text>
      <text x="70" y="118" font-size="14" fill="#9cb1cc">Dart</text>
    </g>
    <g transform="translate(640 30)">
      <rect width="140" height="140" rx="24" fill="#0f1b26" stroke="#2a3b52" />
      <text x="70" y="88" font-size="40" font-weight="700" fill="#d7e2f4">Fi</text>
      <text x="70" y="118" font-size="14" fill="#9cb1cc">Firebase</text>
    </g>
    <g transform="translate(860 30)">
      <rect width="140" height="140" rx="24" fill="#0f1b26" stroke="#2a3b52" />
      <text x="70" y="88" font-size="40" font-weight="700" fill="#d7e2f4">Ar</text>
      <text x="70" y="118" font-size="14" fill="#9cb1cc">Arduino</text>
    </g>

    <g transform="translate(200 170)">
      <rect width="140" height="140" rx="24" fill="#0f1b26" stroke="#2a3b52" />
      <text x="70" y="88" font-size="40" font-weight="700" fill="#d7e2f4">Bt</text>
      <text x="70" y="118" font-size="14" fill="#9cb1cc">Bluetooth</text>
    </g>
    <g transform="translate(420 170)">
      <rect width="140" height="140" rx="24" fill="#0f1b26" stroke="#2a3b52" />
      <text x="70" y="88" font-size="36" font-weight="700" fill="#d7e2f4">C++</text>
      <text x="70" y="118" font-size="14" fill="#9cb1cc">C++</text>
    </g>
    <g transform="translate(640 170)">
      <rect width="140" height="140" rx="24" fill="#0f1b26" stroke="#2a3b52" />
      <text x="70" y="88" font-size="36" font-weight="700" fill="#d7e2f4">Git</text>
      <text x="70" y="118" font-size="14" fill="#9cb1cc">Git</text>
    </g>
    <g transform="translate(860 170)">
      <rect width="140" height="140" rx="24" fill="#0f1b26" stroke="#2a3b52" />
      <text x="70" y="88" font-size="36" font-weight="700" fill="#d7e2f4">GH</text>
      <text x="70" y="118" font-size="14" fill="#9cb1cc">GitHub</text>
    </g>
  </g>
</svg>